<?xml version="1.0" encoding="UTF-8"?>
<svg id="Calque_2" xmlns="http://www.w3.org/2000/svg" viewBox="0 0 1541.72 956.77">
  <defs>
    <style>
      .cls-1, .cls-2 {
        fill: #fff;
      }

      .cls-2 {
        font-family: HaasGrotDisp-65Medium, 'Haas Grot Disp';
        font-size: 803.92px;
        font-weight: 500;
      }
    </style>
  </defs>
  <g id="Calque_1-2" data-name="Calque_1">
    <g>
      <g>
        <rect class="cls-1" x="433.69" y="765.92" width="39.77" height="123.75" transform="translate(269.44 -97.99) rotate(17.47)"/>
        <rect class="cls-1" x="218.29" y="643.75" width="39.77" height="123.75" transform="translate(425.53 -15.16) rotate(33.22)"/>
        <rect class="cls-1" x="1001.87" y="807.12" width="39.77" height="123.75" transform="translate(2157.47 1582.64) rotate(171.76)"/>
        <rect class="cls-1" x="1254.04" y="695.17" width="39.77" height="123.75" transform="translate(2754.41 692.38) rotate(146.78)"/>
        <g>
          <path class="cls-1" d="M303.51,341.54c0-110.48,32.52-212.71,87.73-296.03-27.22,12.36-54.41,26.6-81.43,42.98C132.22,196.13,40.47,347.81,0,427.06c120.39,159.83,251.32,243.62,332.35,286.19,75.08,39.45,158.66,70.47,246.34,91-162.26-79.58-275.18-256.82-275.18-462.71Z"/>
          <path class="cls-1" d="M1170.25,77.88c43.12,76.84,67.96,167.1,67.96,263.66,0,231.96-143.33,427.57-339.08,488.1,157.06-12.3,310.99-62.95,439.48-162.56,104.05-80.66,166.84-174.37,203.1-240.03-50.32-81.83-165.15-242.84-371.47-349.18Z"/>
        </g>
        <rect class="cls-1" x="708.51" y="833.02" width="39.77" height="123.75"/>
      </g>
      <text class="cls-2" transform="translate(556.03 689.36)"><tspan x="0" y="0">1</tspan></text>
    </g>
  </g>
</svg>