<?xml version="1.0" encoding="UTF-8"?>
<svg id="Calque_2" xmlns="http://www.w3.org/2000/svg" viewBox="0 0 1541.72 911.26">
  <defs>
    <style>
      .cls-1 {
        fill: #fff;
      }
    </style>
  </defs>
  <g id="Calque_1-2" data-name="Calque_1">
    <g>
      <rect class="cls-1" x="433.69" y="720.42" width="39.77" height="123.75" transform="translate(255.78 -100.08) rotate(17.47)"/>
      <rect class="cls-1" x="218.29" y="598.24" width="39.77" height="123.75" transform="translate(400.6 -22.6) rotate(33.22)"/>
      <rect class="cls-1" x="991.87" y="761.62" width="39.77" height="123.75" transform="translate(2131.05 1493.53) rotate(171.76)"/>
      <rect class="cls-1" x="1254.04" y="649.66" width="39.77" height="123.75" transform="translate(2729.47 608.8) rotate(146.78)"/>
      <g>
        <path class="cls-1" d="M303.51,296.03c0-110.48,32.52-212.71,87.73-296.03-27.22,12.36-54.41,26.6-81.43,42.98C132.22,150.62,40.47,302.3,0,381.55c120.39,159.83,251.32,243.62,332.35,286.19,75.08,39.45,158.66,70.47,246.34,91-162.26-79.58-275.18-256.82-275.18-462.71Z"/>
        <path class="cls-1" d="M1170.25,32.38c43.12,76.84,67.96,167.1,67.96,263.66,0,231.96-143.33,427.57-339.07,488.1,157.06-12.3,310.99-62.95,439.48-162.56,104.05-80.66,166.84-174.37,203.1-240.03-50.32-81.83-165.15-242.84-371.47-349.18Z"/>
      </g>
      <rect class="cls-1" x="708.51" y="787.51" width="39.77" height="123.75"/>
    </g>
  </g>
</svg>