<?xml version="1.0" encoding="UTF-8"?><svg id="Layer_2" xmlns="http://www.w3.org/2000/svg" viewBox="0 0 563.24 748.01"><defs><style>.cls-1{stroke-width:0px;}</style></defs><g id="Layer_1-2"><g id="_3_A"><path class="cls-1" d="M0,647.29l59.8-67.44,66.85-61.28,59.89,43.36,68.97,15.21,72.04-21.13,41.28-64.75-48.95-63.41-76.65-18.74-84.2,7.26,4.4-56.56,4.15-53.29,47.28-70.51,62.36-61.48-75.59,6.85-73.31-8.04-78.84,6.66,7.45-88.72L51.89,4.8l72.83,3.42L194.42.85l69.7-.54,69.71-.31,69.71,5.09,69.71,7.14,72.01-7.75-6.19,57.65,7.91,56.54-57.68,51.65-43.02,62.9-48.63,55.54,63.61,23.04,52.23,49.11,34.05,63.31,15.7,72.15-17.31,71.2-26.41,67.92-51.49,52.7-64.42,36.13-71.9,16.08-73.12,6.95-70.48-6.73-66.58-22.72-62.01-31.25L0,647.29Z"/></g></g></svg>