<?xml version="1.0" encoding="utf-8"?>
<!-- Generator: Adobe Illustrator 28.2.0, SVG Export Plug-In . SVG Version: 6.00 Build 0)  -->
<svg version="1.1" id="Calque_1" xmlns="http://www.w3.org/2000/svg" xmlns:xlink="http://www.w3.org/1999/xlink" x="0px" y="0px"
	 viewBox="0 0 1200 300" style="enable-background:new 0 0 1200 300;" xml:space="preserve">
<style type="text/css">
	.st0{fill:#FFFFFF;}
</style>
<g>
	<rect x="900" width="300" height="300"/>
	<g>
		<rect x="1036" y="143" class="st0" width="7" height="7"/>
		<rect x="1029" y="150" class="st0" width="7" height="7"/>
		<rect x="1022" y="157" class="st0" width="7" height="7"/>
		<rect x="1015" y="164" class="st0" width="7" height="7"/>
		<rect x="1008" y="171" class="st0" width="7" height="7"/>
		<rect x="1001" y="178" class="st0" width="7" height="7"/>
		<rect x="994" y="185" class="st0" width="7" height="7"/>
		<rect x="987" y="192" class="st0" width="7" height="7"/>
		<polygon class="st0" points="980,206 976.5,206 969.5,206 969.5,213 976.5,213 983.5,213 990.5,213 997.5,213 1004.5,213 
			1004.5,206 997.5,206 990.5,206 987,206 987,199 980,199 		"/>
		<polygon class="st0" points="966,115 973,115 980,115 987,115 994,115 1001,115 1008,115 1015,115 1022,115 1029,115 1036,115 
			1043,115 1050,115 1057,115 1064,115 1071,115 1078,115 1085,115 1092,115 1099,115 1106,115 1113,115 1120,115 1127,115 
			1127,108 1120,108 1113,108 1106,108 1099,108 1092,108 1085,108 1078,108 1071,108 1064,108 1057,108 1050,108 1043,108 
			1036,108 1029,108 1022,108 1015,108 1008,108 1001,108 994,108 987,108 980,108 973,108 966,108 959,108 959,101 952,101 
			952,108 952,115 959,115 		"/>
		<polygon class="st0" points="952,213 952,206 952,199 952,192 952,185 952,178 952,171 952,164 952,157 952,150 952,143 952,136 
			952,129 952,122 952,115 945,115 945,122 945,129 945,136 945,143 945,150 945,157 945,164 945,171 945,178 945,185 945,192 
			945,199 945,206 945,213 945,220 945,227 952,227 952,220 		"/>
		<polygon class="st0" points="1113,227 1106,227 1099,227 1092,227 1085,227 1078,227 1071,227 1064,227 1057,227 1050,227 
			1043,227 1036,227 1029,227 1022,227 1015,227 1008,227 1001,227 994,227 987,227 980,227 973,227 966,227 959,227 952,227 
			952,234 959,234 966,234 973,234 980,234 987,234 994,234 1001,234 1008,234 1015,234 1022,234 1029,234 1036,234 1043,234 
			1050,234 1057,234 1064,234 1071,234 1078,234 1085,234 1092,234 1099,234 1106,234 1113,234 1120,234 1127,234 1127,227 
			1120,227 		"/>
		<rect x="1127" y="220" class="st0" width="7" height="7"/>
		<rect x="1134" y="213" class="st0" width="7" height="7"/>
		<rect x="1141" y="206" class="st0" width="7" height="7"/>
		<polygon class="st0" points="1148,87 1148,80 1141,80 1134,80 1127,80 1120,80 1113,80 1106,80 1099,80 1092,80 1085,80 1085,87 
			1085,94 1078,94 1078,87 1071,87 1071,94 1071,101 1078,101 1085,101 1092,101 1092,94 1092,87 1099,87 1106,87 1113,87 1120,87 
			1127,87 1134,87 1141,87 1141,94 1148,94 1148,101 1148,108 1148,115 1148,122 1148,129 1148,136 1148,143 1148,150 1148,157 
			1148,164 1148,171 1148,178 1148,185 1148,192 1148,199 1148,206 1155,206 1155,199 1155,192 1155,185 1155,178 1155,171 
			1155,164 1155,157 1155,150 1155,143 1155,136 1155,129 1155,122 1155,115 1155,108 1155,101 1155,94 1155,87 		"/>
		<rect x="1078" y="73" class="st0" width="7" height="7"/>
		<polygon class="st0" points="1050,73 1057,73 1064,73 1071,73 1078,73 1078,66 1071,66 1064,66 1057,66 1050,66 1043,66 1036,66 
			1036,73 1043,73 		"/>
		<rect x="1029" y="73" class="st0" width="7" height="7"/>
		<rect x="1134" y="94" class="st0" width="7" height="7"/>
		<rect x="1127" y="101" class="st0" width="7" height="7"/>
		<polygon class="st0" points="987,87 994,87 1001,87 1008,87 1015,87 1022,87 1022,94 1022,101 1029,101 1036,101 1043,101 
			1043,94 1043,87 1050,87 1057,87 1064,87 1071,87 1071,80 1064,80 1057,80 1050,80 1043,80 1036,80 1036,87 1036,94 1029,94 
			1029,87 1029,80 1022,80 1015,80 1008,80 1001,80 994,80 987,80 980,80 973,80 973,87 980,87 		"/>
		<rect x="966" y="87" class="st0" width="7" height="7"/>
		<rect x="959" y="94" class="st0" width="7" height="7"/>
		<polygon class="st0" points="1064,206 1064,199 1064,192 1064,185 1064,178 1064,171 1064,164 1064,157 1064,150 1064,143 
			1064,136 1064,129 1057,129 1050,129 1050,136 1043,136 1043,143 1050,143 1050,150 1050,157 1050,164 1050,171 1043,171 
			1036,171 1029,171 1022,171 1022,178 1029,178 1036,178 1043,178 1050,178 1050,185 1050,192 1050,199 1050,206 1043,206 
			1036,206 1036,213 1043,213 1050,213 1057,213 1064,213 1071,213 1078,213 1078,206 1071,206 		"/>
	</g>
</g>
<g>
	<rect x="600" width="300" height="300"/>
	<g>
		<polygon class="st0" points="663.5,53.3 663.5,63.5 663.5,73.7 673.7,73.7 683.9,73.7 683.9,63.5 683.9,53.3 673.7,53.3 		"/>
		<polygon class="st0" points="826.3,33 816.1,33 806,33 795.8,33 785.6,33 775.4,33 765.3,33 755.1,33 744.9,33 734.7,33 724.6,33 
			714.4,33 704.2,33 694,33 683.9,33 683.9,43.1 683.9,53.3 694,53.3 704.2,53.3 714.4,53.3 724.6,53.3 734.7,53.3 744.9,53.3 
			755.1,53.3 765.3,53.3 775.4,53.3 785.6,53.3 795.8,53.3 806,53.3 806,63.5 795.8,63.5 795.8,73.7 785.6,73.7 785.6,83.9 
			775.4,83.9 775.4,94 765.3,94 765.3,104.2 755.1,104.2 755.1,114.4 744.9,114.4 744.9,124.6 734.7,124.6 734.7,134.7 724.6,134.7 
			724.6,144.9 724.6,155.1 734.7,155.1 744.9,155.1 755.1,155.1 765.3,155.1 775.4,155.1 785.6,155.1 795.8,155.1 806,155.1 
			806,165.3 816.1,165.3 816.1,175.4 816.1,185.6 816.1,195.8 816.1,206 816.1,216.1 806,216.1 806,226.3 795.8,226.3 795.8,236.5 
			785.6,236.5 785.6,246.7 775.4,246.7 765.3,246.7 755.1,246.7 744.9,246.7 734.7,246.7 724.6,246.7 714.4,246.7 704.2,246.7 
			704.2,236.5 694,236.5 694,226.3 683.9,226.3 683.9,216.1 673.7,216.1 663.5,216.1 663.5,226.3 663.5,236.5 673.7,236.5 
			673.7,246.7 683.9,246.7 683.9,256.9 694,256.9 694,267 704.2,267 714.4,267 724.6,267 734.7,267 744.9,267 755.1,267 765.3,267 
			775.4,267 785.6,267 795.8,267 795.8,256.9 806,256.9 806,246.7 816.1,246.7 816.1,236.5 826.3,236.5 826.3,226.3 836.5,226.3 
			836.5,216.1 836.5,206 836.5,195.8 836.5,185.6 836.5,175.4 836.5,165.3 826.3,165.3 826.3,155.1 826.3,144.9 816.1,144.9 
			806,144.9 806,134.7 795.8,134.7 785.6,134.7 775.4,134.7 765.3,134.7 765.3,124.6 775.4,124.6 775.4,114.4 785.6,114.4 
			785.6,104.2 795.8,104.2 795.8,94 806,94 806,83.9 816.1,83.9 816.1,73.7 826.3,73.7 826.3,63.5 836.5,63.5 836.5,53.3 
			836.5,43.1 836.5,33 		"/>
	</g>
</g>
<g>
	<rect x="300" width="300" height="300"/>
	<g>
		<path class="st0" d="M404.1,97.9v7.6v7.6h-7.6H389h-7.6v7.6v7.6v7.6h-7.6h-7.6v7.6h-7.6v7.6h-7.6v7.6h-7.6v7.6v7.6H336v7.6v7.6
			v7.6v7.6v7.6v7.6h7.6v7.6v7.6h7.6v7.6h7.6v7.6h7.6v7.6h7.6h7.6v7.6h7.6h7.6h7.6h7.6h7.6h7.6h7.6v-7.6h7.6v-7.6h7.6v-7.6h7.6v-7.6
			h7.6v-7.6V219h7.6v-7.6v-7.6v-7.6v-7.6v-7.6v-7.6h-7.6V166v-7.6h-7.6v-7.6h-7.6v-7.6h-7.6v-7.6h-7.6v-7.6v-7.6v-7.6h-7.6h-7.6
			h-7.6v-7.6v-7.6v-7.6h-7.6V97.9z M373.8,226.6h-7.6V219h7.6V226.6z M358.7,203.9v-7.6v-7.6h7.6v7.6v7.6v7.6h-7.6V203.9z
			 M381.4,234.1v-7.6h7.6v7.6v7.6h-7.6V234.1z"/>
		<rect x="411.7" y="82.8" class="st0" width="7.6" height="7.6"/>
		<polygon class="st0" points="441.9,75.2 434.4,75.2 426.8,75.2 419.2,75.2 419.2,82.8 426.8,82.8 434.4,82.8 441.9,82.8 
			449.5,82.8 449.5,75.2 		"/>
		<polygon class="st0" points="457.1,82.8 449.5,82.8 449.5,90.4 457.1,90.4 464.6,90.4 464.6,82.8 		"/>
		<polygon class="st0" points="472.2,90.4 464.6,90.4 464.6,97.9 472.2,97.9 479.8,97.9 487.3,97.9 487.3,90.4 479.8,90.4 		"/>
		<rect x="479.8" y="71.4" class="st0" width="7.6" height="7.6"/>
		<rect x="468.4" y="63.9" class="st0" width="7.6" height="7.6"/>
		<rect x="453.3" y="56.3" class="st0" width="7.6" height="7.6"/>
		<rect x="479.8" y="105.5" class="st0" width="7.6" height="7.6"/>
		<rect x="472.2" y="113.1" class="st0" width="7.6" height="7.6"/>
		<rect x="464.6" y="120.6" class="st0" width="7.6" height="7.6"/>
		<polygon class="st0" points="494.9,82.8 487.3,82.8 487.3,90.4 494.9,90.4 502.5,90.4 510,90.4 510,82.8 502.5,82.8 		"/>
		<rect x="494.9" y="63.9" class="st0" width="7.6" height="7.6"/>
		<rect x="487.3" y="48.7" class="st0" width="7.6" height="7.6"/>
		<rect x="479.8" y="33.6" class="st0" width="7.6" height="7.6"/>
		<rect x="502.5" y="105.5" class="st0" width="7.6" height="7.6"/>
		<rect x="502.5" y="120.6" class="st0" width="7.6" height="7.6"/>
		<rect x="502.5" y="135.8" class="st0" width="7.6" height="7.6"/>
		<rect x="525.2" y="97.9" class="st0" width="7.6" height="7.6"/>
		<rect x="532.7" y="105.5" class="st0" width="7.6" height="7.6"/>
		<rect x="540.3" y="113.1" class="st0" width="7.6" height="7.6"/>
		<rect x="547.9" y="120.6" class="st0" width="7.6" height="7.6"/>
		<rect x="525.2" y="79" class="st0" width="7.6" height="7.6"/>
		<rect x="540.3" y="79" class="st0" width="7.6" height="7.6"/>
		<rect x="555.4" y="79" class="st0" width="7.6" height="7.6"/>
		<rect x="517.6" y="56.3" class="st0" width="7.6" height="7.6"/>
		<rect x="525.2" y="48.7" class="st0" width="7.6" height="7.6"/>
		<rect x="532.7" y="41.2" class="st0" width="7.6" height="7.6"/>
		<rect x="540.3" y="33.6" class="st0" width="7.6" height="7.6"/>
	</g>
</g>
<g>
	<rect width="300" height="300"/>
	<g>
		<polygon class="st0" points="37.4,238.9 37.4,229.5 37.4,220.1 37.4,210.7 37.4,201.3 37.4,191.9 37.4,182.5 37.4,173.1 
			37.4,163.7 37.4,154.3 37.4,144.9 37.4,135.5 37.4,126.1 37.4,116.7 37.4,107.3 37.4,97.9 37.4,88.5 37.4,79.1 37.4,69.7 
			37.4,60.3 37.4,50.9 37.4,41.5 28,41.5 28,50.9 28,60.3 28,69.7 28,79.1 28,88.5 28,97.9 28,107.3 28,116.7 28,126.1 28,135.5 
			28,144.9 28,154.3 28,163.7 28,173.1 28,182.5 28,191.9 28,201.3 28,210.7 28,220.1 28,229.5 28,238.9 28,248.3 28,257.7 
			37.4,257.7 37.4,248.3 		"/>
		<polygon class="st0" points="244.2,257.7 234.8,257.7 234.8,248.3 234.8,238.9 234.8,229.5 234.8,220.1 234.8,210.7 234.8,201.3 
			234.8,191.9 234.8,182.5 234.8,173.1 234.8,163.7 234.8,154.3 225.4,154.3 225.4,163.7 225.4,173.1 225.4,182.5 225.4,191.9 
			225.4,201.3 225.4,210.7 225.4,220.1 225.4,229.5 225.4,238.9 225.4,248.3 225.4,257.7 216,257.7 206.6,257.7 197.2,257.7 
			187.8,257.7 178.4,257.7 169,257.7 159.6,257.7 150.2,257.7 140.8,257.7 131.4,257.7 122,257.7 112.6,257.7 103.2,257.7 
			93.8,257.7 84.4,257.7 75,257.7 75,248.3 75,238.9 75,229.5 75,220.1 75,210.7 75,201.3 75,191.9 75,182.5 75,173.1 75,163.7 
			75,154.3 65.6,154.3 65.6,163.7 65.6,173.1 65.6,182.5 65.6,191.9 65.6,201.3 65.6,210.7 65.6,220.1 65.6,229.5 65.6,238.9 
			65.6,248.3 65.6,257.7 56.2,257.7 46.8,257.7 37.4,257.7 37.4,267.1 46.8,267.1 56.2,267.1 65.6,267.1 75,267.1 84.4,267.1 
			93.8,267.1 103.2,267.1 112.6,267.1 122,267.1 131.4,267.1 140.8,267.1 150.2,267.1 159.6,267.1 169,267.1 178.4,267.1 
			187.8,267.1 197.2,267.1 206.6,267.1 216,267.1 225.4,267.1 234.8,267.1 244.2,267.1 253.6,267.1 263,267.1 263,257.7 
			253.6,257.7 		"/>
		<polygon class="st0" points="263,60.3 263,69.7 263,79.1 263,88.5 263,97.9 263,107.3 263,116.7 263,126.1 263,135.5 263,144.9 
			263,154.3 263,163.7 263,173.1 263,182.5 263,191.9 263,201.3 263,210.7 263,220.1 263,229.5 263,238.9 263,248.3 263,257.7 
			272.4,257.7 272.4,248.3 272.4,238.9 272.4,229.5 272.4,220.1 272.4,210.7 272.4,201.3 272.4,191.9 272.4,182.5 272.4,173.1 
			272.4,163.7 272.4,154.3 272.4,144.9 272.4,135.5 272.4,126.1 272.4,116.7 272.4,107.3 272.4,97.9 272.4,88.5 272.4,79.1 
			272.4,69.7 272.4,60.3 		"/>
		<rect x="253.6" y="50.9" class="st0" width="9.4" height="9.4"/>
		<rect x="244.2" y="41.5" class="st0" width="9.4" height="9.4"/>
		<polygon class="st0" points="178.4,69.7 178.4,79.1 178.4,88.5 187.8,88.5 187.8,79.1 187.8,69.7 187.8,60.3 178.4,60.3 		"/>
		<polygon class="st0" points="150.2,69.7 150.2,60.3 140.8,60.3 140.8,69.7 140.8,79.1 140.8,88.5 150.2,88.5 150.2,79.1 		"/>
		<polygon class="st0" points="159.6,88.5 150.2,88.5 150.2,97.9 159.6,97.9 169,97.9 178.4,97.9 178.4,88.5 169,88.5 		"/>
		<polygon class="st0" points="169,60.3 178.4,60.3 178.4,50.9 169,50.9 159.6,50.9 150.2,50.9 150.2,60.3 159.6,60.3 		"/>
		<polygon class="st0" points="187.8,107.3 178.4,107.3 169,107.3 159.6,107.3 150.2,107.3 140.8,107.3 131.4,107.3 122,107.3 
			112.6,107.3 103.2,107.3 93.8,107.3 84.4,107.3 84.4,116.7 93.8,116.7 103.2,116.7 112.6,116.7 122,116.7 131.4,116.7 
			140.8,116.7 150.2,116.7 159.6,116.7 169,116.7 178.4,116.7 187.8,116.7 197.2,116.7 206.6,116.7 206.6,107.3 197.2,107.3 		"/>
		<polygon class="st0" points="93.8,154.3 103.2,154.3 112.6,154.3 122,154.3 131.4,154.3 140.8,154.3 150.2,154.3 159.6,154.3 
			169,154.3 178.4,154.3 187.8,154.3 197.2,154.3 206.6,154.3 216,154.3 225.4,154.3 225.4,144.9 216,144.9 206.6,144.9 
			197.2,144.9 187.8,144.9 178.4,144.9 169,144.9 159.6,144.9 150.2,144.9 140.8,144.9 131.4,144.9 122,144.9 112.6,144.9 
			103.2,144.9 93.8,144.9 84.4,144.9 75,144.9 75,154.3 84.4,154.3 		"/>
		<polygon class="st0" points="56.2,41.5 65.6,41.5 75,41.5 75,50.9 75,60.3 75,69.7 75,79.1 75,88.5 75,97.9 75,107.3 84.4,107.3 
			84.4,97.9 84.4,88.5 84.4,79.1 84.4,69.7 84.4,60.3 84.4,50.9 84.4,41.5 93.8,41.5 103.2,41.5 112.6,41.5 122,41.5 131.4,41.5 
			140.8,41.5 150.2,41.5 159.6,41.5 169,41.5 178.4,41.5 187.8,41.5 197.2,41.5 206.6,41.5 206.6,50.9 206.6,60.3 206.6,69.7 
			206.6,79.1 206.6,88.5 206.6,97.9 206.6,107.3 216,107.3 216,97.9 216,88.5 216,79.1 216,69.7 216,60.3 216,50.9 216,41.5 
			225.4,41.5 234.8,41.5 244.2,41.5 244.2,32.1 234.8,32.1 225.4,32.1 216,32.1 206.6,32.1 197.2,32.1 187.8,32.1 178.4,32.1 
			169,32.1 159.6,32.1 150.2,32.1 140.8,32.1 131.4,32.1 122,32.1 112.6,32.1 103.2,32.1 93.8,32.1 84.4,32.1 75,32.1 65.6,32.1 
			56.2,32.1 46.8,32.1 37.4,32.1 37.4,41.5 46.8,41.5 		"/>
	</g>
</g>
</svg>
