<?xml version="1.0" encoding="utf-8"?>
<!-- Generator: Adobe Illustrator 28.2.0, SVG Export Plug-In . SVG Version: 6.00 Build 0)  -->
<svg version="1.1" id="Calque_1" xmlns="http://www.w3.org/2000/svg" xmlns:xlink="http://www.w3.org/1999/xlink" x="0px" y="0px"
	 viewBox="0 0 300 300" style="enable-background:new 0 0 300 300;" xml:space="preserve">
<style type="text/css">
	.st0{fill:#FFFFFF;}
</style>
<polygon class="st0" points="178,273 178,246 178,219 178,192 178,164.9 178,137.8 178,110.8 178,83.8 178,56.8 178,29.8 178,2.8 
	151,2.8 124,2.8 97,2.8 70,2.8 70,29.8 97,29.8 124,29.8 124,56.8 124,83.8 124,110.8 124,137.8 124,164.9 124,192 124,219 124,246 
	124,273 124,300 151,300 178,300 "/>
</svg>
