<?xml version="1.0" encoding="utf-8"?>
<!-- Generator: Adobe Illustrator 28.2.0, SVG Export Plug-In . SVG Version: 6.00 Build 0)  -->
<svg version="1.1" id="Calque_1" xmlns="http://www.w3.org/2000/svg" xmlns:xlink="http://www.w3.org/1999/xlink" x="0px" y="0px"
	 viewBox="0 0 300 300" style="enable-background:new 0 0 300 300;" xml:space="preserve">
<style type="text/css">
	.st0{fill:#FFFFFF;}
</style>
<path class="st0" d="M259.8,51.8v-9.4h-9.4V33h-113v9.4H128v9.4h-9.4v28.3h-9.4v84.8h-9.4v-18.8h-9.4v-18.8H81v-18.8h-9.4V89.7h-9.4
	V70.9h-9.4V52.1h-9.4V33.3H15v18.8h9.4v18.8h9.4v18.8h9.4v18.8h9.4v18.8H62v18.8h9.4v18.8h9.4v18.8h9.4v18.8h9.4v18.8h9.4v28.3h9.4
	v9.4H222v-9.4h9.4v-9.4h9.4v-9.4h9.4v-9.4h9.4V212h9.4V51.8h-9.4H259.8z M250.4,70.6v131.9H241v9.4h-9.4v9.4h-9.4V80.1h-9.4v-9.4
	h-75.3v-9.4h9.4v-9.4h94.2v9.4h9.4v9.4L250.4,70.6z"/>
</svg>
