<?xml version="1.0" encoding="UTF-8"?>
<svg id="Calque_1" xmlns="http://www.w3.org/2000/svg" width="608.4" height="682.5" viewBox="0 0 608.4 682.5">
  <defs>
    <style>
      .cls-1 {
        fill: #1d1d1b;
      }
    </style>
  </defs>
  <path class="cls-1" d="M288.37,509.7c-32.87,0-62.87-2.09-90-6.27-27.13-4.18-49.6-9.63-67.42-16.35-17.82-6.72-33.46-14.71-46.93-23.97-13.47-9.26-23.86-18.43-31.19-27.52-7.32-9.08-13.17-18.8-17.52-29.15-4.36-10.35-7.13-19.07-8.32-26.16-1.19-7.08-1.78-14.26-1.78-21.52v-4.36h145.54c7.13,41.05,50.49,61.57,130.09,61.57,24.16,0,44.85-1.09,62.08-3.27,17.23-2.18,30.3-4.81,39.21-7.9,8.91-3.09,15.94-6.9,21.09-11.44,5.15-4.54,8.22-8.36,9.21-11.44.99-3.09,1.48-6.81,1.48-11.17,0-21.07-20.59-31.6-61.78-31.6h-156.23v-94.27h149.11c38.42,0,57.62-8.9,57.62-26.7,0-3.63-.59-6.81-1.78-9.54-1.19-2.72-4.36-5.81-9.5-9.26-5.15-3.45-12.18-6.27-21.09-8.44-8.91-2.18-21.68-4.09-38.32-5.72-16.63-1.63-36.63-2.45-60-2.45s-41.39,1.45-57.62,4.36c-16.24,2.9-28.12,5.9-35.64,8.99-7.52,3.09-13.66,7.54-18.42,13.35-4.75,5.81-7.33,9.45-7.72,10.9-.4,1.45-.99,4.36-1.78,8.72H26.38v-5.45c0-6.54.49-12.99,1.48-19.34.99-6.36,3.56-14.17,7.72-23.43,4.16-9.26,9.61-17.8,16.34-25.61,6.73-7.81,16.53-15.89,29.4-24.25,12.87-8.36,27.82-15.44,44.85-21.25,17.03-5.81,38.71-10.54,65.05-14.17,26.33-3.63,55.54-5.45,87.62-5.45h24.95c45.15,0,84.45,2.27,117.92,6.81,33.47,4.54,59.31,10.26,77.52,17.16s32.67,15.35,43.37,25.34c10.69,9.99,17.52,19.16,20.5,27.52,2.97,8.36,4.46,17.62,4.46,27.79v3.27c0,19.25-7.33,34.87-21.98,46.86-14.65,11.99-30.89,19.8-48.71,23.43,9.9,2.54,19.31,6.08,28.22,10.63,8.91,4.54,17.82,10.63,26.73,18.25,8.91,7.63,16.04,17.53,21.38,29.7,5.35,12.17,8.02,25.7,8.02,40.59v3.81c0,92.27-88.32,138.4-264.94,138.4h-27.91Z"/>
</svg>