<?xml version="1.0" encoding="UTF-8"?>
<svg id="Calque_1" data-name="Calque 1" xmlns="http://www.w3.org/2000/svg" viewBox="0 0 1000 582.89">
  <defs>
    <style>
      .cls-1, .cls-2, .cls-3, .cls-4, .cls-5, .cls-6, .cls-7, .cls-8 {
        stroke-miterlimit: 10;
      }

      .cls-1, .cls-2, .cls-3, .cls-4, .cls-6 {
        fill: none;
      }

      .cls-1, .cls-2, .cls-3, .cls-7, .cls-8 {
        stroke: #221f20;
      }

      .cls-1, .cls-4, .cls-8 {
        stroke-width: 4px;
      }

      .cls-2 {
        stroke-width: 6px;
      }

      .cls-3, .cls-5, .cls-6, .cls-7 {
        stroke-width: 7px;
      }

      .cls-4 {
        stroke: #020202;
      }

      .cls-5, .cls-9, .cls-7, .cls-8 {
        fill: #fff;
      }

      .cls-5, .cls-6 {
        stroke: #000;
      }

      .cls-9 {
        font-family: HelveticaNeue-Medium, 'Helvetica Neue';
        font-size: 800px;
        font-weight: 500;
      }
    </style>
  </defs>
  <text class="cls-9" transform="translate(276.54 571.69)"><tspan x="0" y="0">0</tspan></text>
  <polyline class="cls-6" points="498.9 495.42 507.1 533.63 482.73 562.59 492.8 582.88"/>
  <polyline class="cls-6" points="577.52 573.48 573.05 528.92 547.37 531.59 531.36 497.34"/>
  <polyline class="cls-6" points="470.35 502.45 448.09 539.15 418.4 545.33 397.19 560.72"/>
  <polyline class="cls-6" points="364.6 524.6 372.55 478.85 404.38 478.85 431.24 497.34 451.13 458.96"/>
  <polyline class="cls-5" points="328.86 457.19 343.08 445.02 348.42 447.04 353.75 449.06 355.87 443.94 362.17 428.69 373.92 419.69 378.09 400.22"/>
  <polyline class="cls-6" points="356.53 442.04 365.58 441.03 369.99 433.89 404.62 450.08 425.58 442.94"/>
  <polyline class="cls-6" points="646.6 544.4 602.39 524.6 617.12 489.41 582.55 489.41 566.67 453.82"/>
  <polyline class="cls-5" points="657.53 486.4 635.8 473.47 636.07 465.77 636.34 458.07 628.87 457.59 606.64 456.14"/>
  <polyline class="cls-6" points="626.16 457.57 620.95 446.42 609.89 443.88 592.41 423.08 562.55 423.08"/>
  <polyline class="cls-5" points="315.28 402.38 333.14 396.75 337.25 400.69 341.37 404.64 345.32 400.76 357.09 389.19 388.97 405.93 407.86 399.46"/>
  <polyline class="cls-5" points="346.67 399.26 355.39 401.89 362.25 397.04"/>
  <polyline class="cls-6" points="682.16 435.61 657.42 430.38 655.19 423 652.97 415.62 645.74 417.57 624.23 423.36 602.94 435.61"/>
  <polyline class="cls-6" points="643.17 418.43 634.65 409.55 623.36 410.7 577.52 401.89"/>
  <polyline class="cls-5" points="308.49 368.27 321.34 357.92 325.65 354.44 329.36 358.77 333.07 363.11 351.39 359.26 373.04 330.76 400.15 327.13"/>
  <polyline class="cls-6" points="319.85 359.27 311.42 355.8 304.12 359.95"/>
  <polyline class="cls-6" points="687.48 386.73 665.34 389.19 657.9 390.01 656.82 382.38 655.74 374.75 632.09 365.83 606.64 389.19 583.5 372.5"/>
  <polyline class="cls-6" points="668.01 388.73 675.08 398.8 686.42 399.38"/>
  <polyline class="cls-3" points="351.39 359.26 379.58 361.43 391.05 377.15 411.02 377.15"/>
  <polyline class="cls-4" points="494.52 80.09 507 68.62 494.9 63.86 499.68 55.52 493.08 40.34 507 29.47 497.46 7.1 505.59 -8.84"/>
  <polyline class="cls-6" points="413.34 296.19 399.26 299.16 396.35 295.56 393.43 291.96 390.15 294.77 380.37 303.15 356.94 286.56 342.01 290.12 333.39 316.41 297.69 323.34"/>
  <polyline class="cls-6" points="696.4 323.26 682.32 326.23 679.41 322.63 676.5 319.03 673.21 321.84 663.43 330.22 640 313.63 625.07 317.19 616.29 336.78 590.72 336.78"/>
  <polyline class="cls-6" points="290.94 266.36 303.93 260.15 307.61 262.97 311.28 265.78 313.82 262.27 321.35 251.83 348.03 262.44 361.7 255.46 400.15 270.07"/>
  <polyline class="cls-6" points="412.17 249.88 401.08 240.72 397.13 242.19 393.18 243.67 391.42 239.84 386.19 228.43 359.28 230.39 347.68 220.35"/>
  <polyline class="cls-6" points="351.88 223.9 342.89 225.7 340.41 219.04 313.58 215.93 307.04 211.19"/>
  <polyline class="cls-6" points="694.29 247.22 680.09 249.53 678.6 253.47 677.11 257.42 673.07 256.21 661.04 252.63 644.78 274.17 629.58 276.29 613.52 270.07 590.72 272.93"/>
  <polyline class="cls-6" points="412.96 167.4 397.32 165.8 370.41 179.11 356.32 159.64 341.98 155.69 340.87 136.35 327.3 119.32"/>
  <polyline class="cls-6" points="573.6 223.68 587.95 216.56 616.7 220.91 632.03 201.61 644.95 198.69 651.27 183.69 666.02 171.66 687.48 175.34"/>
  <polyline class="cls-6" points="582.65 161.66 617.11 157.3 628.42 139.84 649.93 148.66 651.27 130.35 672.08 126.28"/>
  <polyline class="cls-6" points="364.76 171.3 349.47 182.22 333.39 182.22 320.39 184.46 309.53 179.11"/>
  <polyline class="cls-6" points="622.45 213.67 639.26 216.69 649.93 213.67 666.02 220.35 680.09 249.53"/>
  <polyline class="cls-7" points="547.37 531.59 562.55 495.42 582.55 489.41"/>
  <polyline class="cls-7" points="448.09 539.15 462.75 560.72 482.73 562.59"/>
  <polyline class="cls-7" points="404.62 450.08 397.19 458.96 404.38 478.85"/>
  <polyline class="cls-7" points="617.12 489.41 627.37 486.4 635.8 473.47"/>
  <polyline class="cls-7" points="373.04 330.76 347.68 330.76 333.39 316.41"/>
  <polyline class="cls-7" points="632.09 365.83 654.61 350.98 616.29 336.78"/>
  <polyline class="cls-1" points="338.56 101.34 355.67 102.63 363.56 103.22 375.51 109.84 383.46 110.3 393.87 136.85 411.15 143.97 417.76 141.68 428.9 140.66"/>
  <polyline class="cls-1" points="355.93 102.64 364.93 95.45 370.25 94.08 382.18 80.09 379.93 60.22 359.81 49.35"/>
  <polyline class="cls-8" points="428.56 124.59 423.15 118.76 419.09 105.7 413.81 99.82 402.35 87.06 410.9 70.77 408.87 44.51 395.14 26.8"/>
  <polyline class="cls-8" points="413.99 100.01 425.47 101.04 430.25 103.74 437.08 100.01 443.81 100.01"/>
  <polyline class="cls-8" points="434.48 7.1 438.57 13.98 443.81 22.8 455.68 26.97 440.7 41.74 455.68 50.5 465.05 65.35 465.05 83.64 465.05 86.76"/>
  <polyline class="cls-8" points="420.71 15.25 432.11 23.66 443.81 22.8"/>
  <polyline class="cls-1" points="575.57 15.47 564.06 29.69 575.57 35.11 565.47 47.34 558.3 56.01 546.79 51.8 532.53 40.97 529.67 24.83 545.98 1.79"/>
  <polyline class="cls-8" points="558.3 56.01 554.31 62.49 544.83 65.35 537.23 72.59 530.84 85.2"/>
  <polyline class="cls-1" points="567.81 44.51 577.52 54.82 582.65 69.03 558.3 106.4 554.08 112.27"/>
  <polyline class="cls-1" points="564.77 117.85 595.16 113.64 594.22 98.59 607.72 95.7 616.67 93.79 624.93 76.33 617.36 61.81 642.52 58.88"/>
  <polyline class="cls-1" points="607.72 95.7 615.16 113.6 636.41 115.06 655.71 94.54"/>
  <polyline class="cls-2" points="507.1 533.63 533.8 555.07 541.82 582.88"/>
  <polyline class="cls-7" points="382.18 173.29 389.04 197.67 402.65 204.69"/>
  <polyline class="cls-7" points="644.78 274.17 668.01 288.62 653.71 323.34"/>
  <polyline class="cls-8" points="493.08 40.34 465.99 38.04 452.2 30.41"/>
</svg>