<?xml version="1.0" encoding="UTF-8"?><svg id="Layer_2" xmlns="http://www.w3.org/2000/svg" viewBox="0 0 653.5 754.25"><defs><style>.cls-1{stroke-width:0px;}</style></defs><g id="Layer_1-2"><path id="_0_A" class="cls-1" d="M643.03,308.77l-6.84-69.93-29.92-63.56-36.97-59.25-49.3-49.51-57.54-40.41-69.11-12.32L325.52,0l-70.16,1.85-60.8,35.4-57.58,35.37-49.5,46.83-42.15,55.07-28.61,63.88-2.4,70.24L0,376.8l5.75,69.69,16.2,67.87,21.32,66.99,47.6,51.99,42.3,55.16,62.59,30.07,63.66,24.58,68.15,11.1,67.54-12.86,69.97-9.98,54.06-45.22,45.3-51.51,47.96-51.92,15.55-68.83,20.95-66.43,4.6-69.67-10.47-69.05ZM443.88,443.7l-24.13,60.97-33.04,54.36-60.16,19.87-60.13-20.3-33.69-54.22-26.72-61.03,2.27-66.56,9.83-64.2,3.1-66.76,39.85-55.06,64.47-19.61,59.74,26.15,34.25,53.32,28.62,60.49-5.33,66.7,1.08,65.88Z"/></g></svg>