<?xml version="1.0" encoding="UTF-8"?><svg id="Layer_2" xmlns="http://www.w3.org/2000/svg" viewBox="0 0 348.82 736.58"><defs><style>.cls-1{stroke-width:0px;}</style></defs><g id="Layer_1-2"><polygon class="cls-1" points="145.11 167.65 72.82 178.69 9.92 167.63 8.95 87.91 0 .16 72.5 3.76 140.22 9.53 207.94 8.23 275.66 1.27 347.72 0 338.51 76.86 345.33 149.69 336.33 222.52 341.58 295.36 338.46 368.19 345.94 441.02 348.82 513.85 345.74 586.69 337.9 659.53 347.94 736.58 275.87 727.07 208.36 726.47 137.11 735.97 147.03 662.3 146.65 592.23 138.32 522.16 136.05 452.09 134.94 382.02 135.47 311.94 135.62 241.71 145.11 167.65"/></g></svg>