<?xml version="1.0" encoding="UTF-8"?><svg id="Layer_2" xmlns="http://www.w3.org/2000/svg" viewBox="0 0 563.01 745.44"><defs><style>.cls-1{stroke-width:0px;}</style></defs><g id="Layer_1-2"><g id="_2_A"><path class="cls-1" d="M8.18,633.11l44.82-51.79,49.69-47.5,52.74-44.47,46.24-50.92,48.75-48.44,43.77-53.4,49.66-84.5-24.09-56.2-58.91-21.41-72.84,31.59-53.63,56.65-69.26-54.62L3.91,144.03l38.15-47.4,49.15-42.98,56.96-33.38L211.82.76l66.42-.76,66.22,14.42,68.98,5.48,51.72,45.45,52.28,44.48,14.98,67.07,18.93,65.99-9.98,64.46-27.18,58.51-33.46,54.94-46.78,44.24-53.66,58.04-59.86,51.14,79.89-1.12,80.13.79,81.62-.99-4.55,85.3,5.49,85.89-71.61-5.55-69.18-.82-69.18.14-69.17,3.9-69.18,2.46-69.18.45-69.18-8.43-71.83,9.2-.54-58.11,4.21-54.22Z"/></g></g></svg>